# xmcd
#
# Track frame offsets:
#	150
#	26126
#	40675
#	58163
#	70963
#	87864
#	104479
#	119671
#	138207
#	155293
#	169525
#	188829
#	202334
#	223401
#	239182
#	256888
#	279381
#	296950
#	315750
#
# Disc length: 4424 seconds
#
# Revision: 1
# Processed by: cddbd v1.5.2PL0 Copyright (c) Steve Scherf et al.
# Submitted via: audiograbber 1.83.01
#
DISCID=29114613
DTITLE=Diversos - Direito de Viver 2007
DYEAR=2007
DGENRE=Sertanejo
TTITLE0=o dia do bem
TTITLE1=barretos a terra do peao
TTITLE2=guia-me
TTITLE3=nuvem branquinha
TTITLE4=bem aos olhos da lua
TTITLE5=foi engano
TTITLE6=a proxima vitima
TTITLE7=volta por cima
TTITLE8=nao olhe assim
TTITLE9=galera coracao
TTITLE10=a cura
TTITLE11=sempre seu homem
TTITLE12=tentei te esquecer
TTITLE13=coisa do destino
TTITLE14=causa perdida
TTITLE15=alma gemea
TTITLE16=fera mansa
TTITLE17=tatuagem
TTITLE18=you
EXTD=
EXTT0=
EXTT1=
EXTT2=
EXTT3=
EXTT4=
EXTT5=
EXTT6=
EXTT7=
EXTT8=
EXTT9=
EXTT10=
EXTT11=
EXTT12=
EXTT13=
EXTT14=
EXTT15=
EXTT16=
EXTT17=
EXTT18=
PLAYORDER=
